<svg width="28" height="28" viewBox="0 0 28 28" fill="none" xmlns="http://www.w3.org/2000/svg">
<g clip-path="url(#clip0_628_4999)">
<path d="M21.2761 11.2136C20.6209 11.2136 20.0881 11.7464 20.0881 12.4017V15.6127C20.0881 16.2679 20.6209 16.8007 21.2761 16.8007C21.9314 16.8007 22.4642 16.2679 22.4642 15.6127V12.4017C22.4642 11.7464 21.9314 11.2136 21.2761 11.2136ZM12.8103 15.4335C12.8103 16.0887 13.3431 16.6221 13.9983 16.6221C14.6535 16.6221 15.1864 16.0887 15.1864 15.4335C15.1864 14.7788 14.6535 14.2454 13.9983 14.2454C13.3451 14.2454 12.8103 14.7768 12.8103 15.4335Z" fill="currentColor"/>
<path d="M23.8905 4.115C15.0481 -4.72742 0.00878906 1.65526 0.00878906 14.0071C0.00878906 17.7439 1.46402 21.2571 4.1062 23.8993C9.57369 29.3668 18.4229 29.3669 23.8905 23.8993C29.358 18.4319 29.3581 9.5826 23.8905 4.115ZM8.41672 6.49921C11.0286 4.24773 14.7507 3.77561 17.8521 5.34344C17.8214 4.93799 18.0964 4.5642 18.5045 4.48004C18.9477 4.38931 19.3811 4.67511 19.4723 5.11884L19.8483 6.95498C19.924 7.31887 19.7407 7.75183 19.2991 7.89927L17.5592 8.52549C17.1255 8.68042 16.6617 8.45177 16.5099 8.0315C16.3569 7.60581 16.5782 7.13637 17.0039 6.98281L17.2684 6.88771C14.7243 5.51965 11.6353 5.88923 9.48723 7.74073C9.14406 8.03637 8.62656 7.99809 8.33092 7.65547C8.03533 7.31236 8.07356 6.79485 8.41672 6.49921ZM16.8258 15.4335C16.8258 16.9931 15.5574 18.2615 13.9983 18.2615C12.4393 18.2615 11.1709 16.9931 11.1709 15.4335C11.1709 13.596 12.4388 11.064 13.9934 9.91521C14.3563 9.64473 14.87 9.72014 15.1399 10.0835C15.4099 10.4458 15.335 10.9579 14.9744 11.2284C14.9569 11.242 14.3421 11.7196 13.7688 12.6153C15.4353 12.4833 16.8258 13.8023 16.8258 15.4335ZM4.34611 15.7837C4.34611 15.3312 4.71334 14.964 5.16582 14.964C5.61885 14.964 5.98553 15.3312 5.98553 15.7837C5.98553 16.3215 6.42637 16.7406 6.9424 16.7406C7.4703 16.7406 7.89981 16.3116 7.89981 15.7837C7.89981 15.2564 7.4703 14.8269 6.9424 14.8269C6.48991 14.8269 6.12269 14.4596 6.12269 14.0071C6.12269 13.5547 6.48991 13.1874 6.9424 13.1874C7.4703 13.1874 7.89981 12.7579 7.89981 12.2306C7.89981 11.7027 7.4703 11.2737 6.9424 11.2737C6.48609 11.2737 6.09157 11.5978 6.00358 12.0443C5.91668 12.4885 5.48552 12.7782 5.04124 12.6907C4.59696 12.6033 4.30788 12.1727 4.39533 11.7284C4.6336 10.5147 5.70466 9.63428 6.9424 9.63428C9.21844 9.63428 10.3813 12.3628 8.83371 14.0071C10.3814 15.6514 9.21822 18.38 6.9424 18.38C5.53173 18.38 4.34611 17.2294 4.34611 15.7837ZM19.58 21.5151C16.9681 23.7666 13.2466 24.2386 10.1452 22.6709C10.1803 23.1446 9.80485 23.5507 9.32716 23.5507C8.94571 23.5507 8.60419 23.2829 8.52495 22.8949L8.1517 21.0708C8.05824 20.6839 8.2782 20.2654 8.67413 20.1227L10.4381 19.4883C10.8644 19.3352 11.3338 19.556 11.4868 19.9823C11.6404 20.4079 11.4191 20.8774 10.9934 21.0309L10.7284 21.1266C13.2724 22.4946 16.3614 22.1251 18.5095 20.2736C18.8527 19.9779 19.3702 20.0162 19.6658 20.3588C19.9614 20.7019 19.9232 21.2194 19.58 21.5151ZM21.2762 18.4401C19.7171 18.4401 18.4488 17.1717 18.4488 15.6127V12.4016C18.4488 10.8425 19.7171 9.57418 21.2762 9.57418C22.8353 9.57418 24.1037 10.8425 24.1037 12.4016V15.6127C24.1037 17.1717 22.8353 18.4401 21.2762 18.4401Z" fill="currentColor"/>
</g>
<defs>
<clipPath id="clip0_628_4999">
<rect width="28" height="28" fill="white"/>
</clipPath>
</defs>
</svg>
