<svg width="16" height="16" viewBox="0 0 16 16" fill="none" xmlns="http://www.w3.org/2000/svg">
<g clip-path="url(#clip0_2029_2114)">
<path d="M2.34314 2.34314C1.22432 3.46196 0.46239 4.88743 0.153708 6.43928C-0.154973 7.99112 0.00345364 9.59966 0.608955 11.0615C1.21446 12.5233 2.23984 13.7727 3.55543 14.6518C4.87102 15.5308 6.41774 16 7.99999 16C9.58224 16 11.129 15.5308 12.4446 14.6518C13.7601 13.7727 14.7855 12.5233 15.391 11.0615C15.9965 9.59966 16.155 7.99112 15.8463 6.43928C15.5376 4.88743 14.7757 3.46196 13.6568 2.34314C12.1566 0.842853 10.1217 -2.42357e-06 7.99999 -2.59216e-06C5.87826 -2.92933e-06 3.84343 0.842852 2.34314 2.34314ZM12.0682 7.07133C12.1944 7.06457 12.3205 7.08358 12.4391 7.12719C12.5577 7.17081 12.6661 7.23812 12.7578 7.32502C12.8494 7.41192 12.9225 7.51658 12.9724 7.63263C13.0223 7.74868 13.048 7.87368 13.048 8C13.048 8.12632 13.0223 8.25132 12.9724 8.36736C12.9225 8.48341 12.8494 8.58808 12.7578 8.67498C12.6661 8.76188 12.5577 8.82919 12.4391 8.8728C12.3205 8.91642 12.1944 8.93543 12.0682 8.92866L8.92866 8.92866L8.92866 12.0682C8.93542 12.1944 8.91641 12.3206 8.8728 12.4391C8.82918 12.5577 8.76187 12.6661 8.67497 12.7578C8.58807 12.8494 8.48341 12.9225 8.36736 12.9724C8.25131 13.0223 8.12631 13.048 7.99999 13.048C7.87367 13.048 7.74867 13.0223 7.63263 12.9724C7.51658 12.9225 7.41191 12.8494 7.32501 12.7578C7.23811 12.6661 7.1708 12.5577 7.12719 12.4391C7.08357 12.3206 7.06456 12.1944 7.07132 12.0682V8.92866H3.93177C3.69408 8.91592 3.47032 8.81253 3.30657 8.63977C3.14282 8.467 3.05155 8.23803 3.05155 8C3.05155 7.76196 3.14282 7.53299 3.30657 7.36023C3.47032 7.18747 3.69408 7.08407 3.93177 7.07133L7.07132 7.07133V3.93178C7.06456 3.80564 7.08357 3.67944 7.12719 3.56089C7.1708 3.44234 7.23811 3.33391 7.32501 3.24223C7.41191 3.15055 7.51658 3.07753 7.63263 3.02763C7.74867 2.97773 7.87367 2.952 7.99999 2.952C8.12631 2.952 8.25131 2.97773 8.36736 3.02763C8.48341 3.07753 8.58807 3.15055 8.67497 3.24223C8.76187 3.33391 8.82918 3.44234 8.8728 3.56089C8.91641 3.67944 8.93542 3.80564 8.92866 3.93178L8.92866 7.07133L12.0682 7.07133Z" fill="currentColor"/>
</g>
<defs>
<clipPath id="clip0_2029_2114">
<rect width="16" height="16" fill="currentColor"/>
</clipPath>
</defs>
</svg>
