<svg width="40" height="40" viewBox="0 0 40 40" fill="none" xmlns="http://www.w3.org/2000/svg">
<g clip-path="url(#clip0_2218_4841)">
<rect width="40" height="40" fill="#7A7A7A"/>
<path d="M20.0024 -0.000135303C49.5024 -0.000124921 40.0024 -10 40.0024 19.9999C40.0024 51 50.5024 39.9999 20.0024 39.9999C-8.49839 39.9999 0.00342401 49 0.00239325 19.9999C0.0014869 -5.49999 -11.5 -0.000146389 20.0024 -0.000135303ZM24.9877 6.47285C24.8509 6.47123 24.7141 6.4757 24.5776 6.48423C23.8557 6.5286 23.1356 6.7142 22.4601 7.05878L22.2111 7.1955L12.1134 13.0256C10.8356 13.7638 9.92664 14.9722 9.55806 16.4208C9.20651 17.8082 9.38828 19.2629 10.0675 20.5354L10.0691 20.5402L10.1619 20.7079L10.1635 20.7095L10.2596 20.869L10.2612 20.8707C10.3115 20.9517 10.3638 21.0305 10.4174 21.1082C10.4316 21.1289 10.4453 21.1497 10.4597 21.17C10.6515 21.4404 10.8632 21.6895 11.0913 21.9172C11.1102 21.9362 11.129 21.9554 11.1482 21.9742C11.2037 22.028 11.2602 22.0807 11.3175 22.132C11.367 22.1765 11.4178 22.2195 11.4689 22.2622C11.5125 22.2987 11.5562 22.3347 11.6007 22.3697C11.7979 22.5252 12.0043 22.6694 12.2208 22.7977C12.251 22.8155 12.2832 22.8309 12.3136 22.8482L12.1134 22.9654C10.8354 23.7035 9.92676 24.912 9.55806 26.3605C9.20628 27.7484 9.38799 29.204 10.0675 30.4767L10.0691 30.4817L10.1619 30.6477L10.1635 30.6509L10.2596 30.8104C10.2691 30.8257 10.2792 30.8407 10.2889 30.856C10.3242 30.9117 10.361 30.9662 10.3979 31.0204C10.4186 31.0507 10.4385 31.0815 10.4597 31.1115C10.6469 31.3754 10.8532 31.619 11.075 31.8424C11.1044 31.872 11.1344 31.9012 11.1645 31.9302C11.3089 32.0694 11.4591 32.2005 11.6153 32.3225C11.7412 32.421 11.8721 32.513 12.006 32.6007C12.0184 32.6089 12.0309 32.6172 12.0434 32.6252C12.1025 32.6632 12.1603 32.7032 12.2208 32.7392C12.5953 32.961 12.9906 33.1317 13.3943 33.26C13.4252 33.2699 13.456 33.2799 13.4871 33.2892C13.6365 33.3339 13.7863 33.3745 13.9379 33.4064C13.9605 33.4112 13.9837 33.4134 14.0063 33.4179C14.1344 33.443 14.263 33.4635 14.392 33.4797C14.4414 33.486 14.4906 33.4925 14.5402 33.4975C14.6643 33.5097 14.7885 33.5182 14.9129 33.522C14.9433 33.523 14.9736 33.5247 15.004 33.5252C15.1447 33.5272 15.2853 33.5225 15.4256 33.5139C16.1479 33.4697 16.8687 33.2857 17.5447 32.9409L17.7937 32.8042L27.8914 26.9742C29.1692 26.236 30.0782 25.0275 30.4467 23.579C30.7984 22.1907 30.6157 20.7357 29.9357 19.4627V19.4595L29.8412 19.2902C29.8341 19.2777 29.8257 19.2652 29.8184 19.2529L29.7452 19.1307C29.7391 19.1209 29.7319 19.1112 29.7257 19.1014C29.6802 19.029 29.6339 18.9579 29.5857 18.8882C29.5717 18.868 29.5576 18.848 29.5434 18.828C29.3484 18.5532 29.1331 18.3002 28.9006 18.0695C28.8857 18.0549 28.8714 18.04 28.8566 18.0255C28.7107 17.884 28.5587 17.7507 28.4009 17.6269C28.2047 17.4724 27.9992 17.3297 27.7839 17.202C27.7532 17.1837 27.7206 17.1675 27.6896 17.1499L27.8914 17.0344C29.1694 16.2963 30.0781 15.0877 30.4467 13.6392C30.7987 12.2507 30.6161 10.7946 29.9357 9.52135V9.5181L29.8412 9.34883C29.8376 9.34233 29.8336 9.33577 29.8299 9.3293L29.7452 9.18932C29.7352 9.17333 29.7244 9.158 29.7142 9.14212C29.6789 9.08637 29.6422 9.03188 29.6052 8.97773C29.5846 8.9474 29.5647 8.9165 29.5434 8.88658C29.4171 8.70868 29.2822 8.53997 29.1397 8.3804C29.1231 8.36177 29.1062 8.34347 29.0892 8.32507C29.0366 8.26745 28.9829 8.21088 28.9282 8.15578C28.8997 8.1272 28.8709 8.09915 28.8419 8.07115C28.6961 7.93053 28.5441 7.79866 28.3862 7.67565C28.2606 7.5774 28.1307 7.48481 27.9972 7.39733C27.9847 7.38918 27.9722 7.38096 27.9597 7.37291C27.9014 7.33528 27.8437 7.2961 27.7839 7.26061C27.4089 7.03826 27.0132 6.86645 26.6089 6.73815C26.5779 6.7283 26.5471 6.71816 26.5161 6.70885C26.3667 6.6643 26.2167 6.62347 26.0652 6.59167C26.0416 6.58665 26.0172 6.58497 25.9936 6.58027C25.8676 6.55553 25.7412 6.53436 25.6144 6.51841C25.5634 6.5119 25.5126 6.50561 25.4614 6.50051C25.3377 6.48845 25.2141 6.47986 25.0902 6.4761C25.0669 6.47535 25.0437 6.4733 25.0202 6.47285H24.9877ZM24.0519 19.2854C24.6284 19.0847 25.2597 19.0775 25.8487 19.2609C26.0649 19.3287 26.2747 19.4207 26.4721 19.5377C26.6139 19.6217 26.7462 19.7224 26.8741 19.8305C27.1356 20.0529 27.3632 20.3174 27.5382 20.62C27.6177 20.7579 27.6837 20.9012 27.7401 21.0464C27.7984 21.198 27.8442 21.3517 27.8767 21.507C27.8982 21.6084 27.9132 21.7104 27.9239 21.813C27.9411 21.9785 27.9442 22.1439 27.9337 22.3079C27.9271 22.4094 27.9169 22.5109 27.8996 22.6122C27.8756 22.7544 27.8397 22.8939 27.7954 23.0305C27.5789 23.7009 27.1362 24.257 26.5259 24.6092L16.4282 30.4377C16.3631 30.4752 16.2954 30.5084 16.228 30.5402C16.1359 30.584 16.0427 30.6229 15.948 30.6559C15.9276 30.6629 15.9068 30.6687 15.8862 30.6754C15.0972 30.9299 14.2396 30.821 13.5327 30.4019C13.3904 30.3175 13.2572 30.2175 13.129 30.1089C12.8681 29.8869 12.6412 29.6217 12.4666 29.3195C12.4316 29.2589 12.4011 29.1962 12.3706 29.134C11.7332 27.8295 12.122 26.2632 13.2804 25.4589C13.3446 25.4144 13.4105 25.3714 13.479 25.3319L17.4081 23.063C17.4231 23.0559 17.4386 23.0492 17.4536 23.0419C17.4612 23.0382 17.4687 23.0342 17.4764 23.0305C17.4986 23.0195 17.5226 23.0109 17.5447 22.9995L17.7937 22.8645L23.8371 19.3732C23.9082 19.3414 23.9792 19.3109 24.0519 19.2854ZM23.5766 9.56203C24.2612 9.16698 25.0809 9.08538 25.8324 9.31465C26.0546 9.38287 26.2697 9.47783 26.4721 9.59785C26.5977 9.67232 26.7171 9.75828 26.8319 9.85175C27.1121 10.081 27.3536 10.3608 27.5382 10.6802C27.6192 10.8209 27.6864 10.9666 27.7432 11.1148C27.7992 11.2616 27.8432 11.4105 27.8751 11.5607C27.8972 11.6637 27.9131 11.7672 27.9239 11.8716C27.9492 12.1165 27.9439 12.3612 27.9092 12.6008C27.9054 12.6274 27.9009 12.6539 27.8962 12.6805C27.8722 12.8198 27.8389 12.9568 27.7954 13.0907C27.5789 13.7606 27.1359 14.3158 26.5259 14.6678L22.6099 16.9269C22.5919 16.9354 22.5741 16.9444 22.5561 16.953C22.5462 16.9577 22.5366 16.9629 22.5267 16.9677C22.5049 16.9785 22.4819 16.989 22.4601 17.0002L22.2111 17.1352L16.1629 20.6265C16.0927 20.6577 16.0229 20.6877 15.9513 20.7127C15.9302 20.72 15.909 20.727 15.8878 20.7339C15.0984 20.989 14.2401 20.8814 13.5327 20.462C13.3903 20.3777 13.2574 20.2764 13.129 20.1675C12.8683 19.9455 12.6411 19.6817 12.4666 19.3797C12.4321 19.32 12.4007 19.2587 12.3706 19.1975C11.7307 17.8922 12.1208 16.3224 13.2804 15.5175C13.3446 15.473 13.4105 15.43 13.479 15.3905L14.3221 14.9038L23.5766 9.56203Z" fill="#333333"/>
</g>
<defs>
<clipPath id="clip0_2218_4841">
<rect width="40" height="40" fill="white"/>
</clipPath>
</defs>
</svg>
