<svg width="18" height="16" viewBox="0 0 18 16" fill="none" xmlns="http://www.w3.org/2000/svg">
<g filter="url(#filter0_d_2029_1221)">
<g clip-path="url(#clip0_2029_1221)">
<path d="M7.36085 13.1886C7.22722 13.323 7.04487 13.398 6.85548 13.398C6.6661 13.398 6.48375 13.323 6.35012 13.1886L2.31414 9.15195C1.89529 8.7331 1.89529 8.0539 2.31414 7.63586L2.8195 7.13036C3.23848 6.71151 3.91688 6.71151 4.33573 7.13036L6.85552 9.65025L13.6642 2.84136C14.0832 2.42251 14.7623 2.42251 15.1804 2.84136L15.6858 3.34686C16.1046 3.7657 16.1046 4.44477 15.6858 4.86295L7.36085 13.1886Z" fill="currentColor"/>
</g>
</g>
<defs>
<filter id="filter0_d_2029_1221" x="-1" y="-2" width="20" height="20" filterUnits="userSpaceOnUse" color-interpolation-filters="sRGB">
<feFlood flood-opacity="0" result="BackgroundImageFix"/>
<feColorMatrix in="SourceAlpha" type="matrix" values="0 0 0 0 0 0 0 0 0 0 0 0 0 0 0 0 0 0 127 0" result="hardAlpha"/>
<feMorphology radius="2" operator="dilate" in="SourceAlpha" result="effect1_dropShadow_2029_1221"/>
<feOffset/>
<feComposite in2="hardAlpha" operator="out"/>
<feColorMatrix type="matrix" values="0 0 0 0 0.203922 0 0 0 0 0.490196 0 0 0 0 0.913725 0 0 0 1 0"/>
<feBlend mode="normal" in2="BackgroundImageFix" result="effect1_dropShadow_2029_1221"/>
<feBlend mode="normal" in="SourceGraphic" in2="effect1_dropShadow_2029_1221" result="shape"/>
</filter>
<clipPath id="clip0_2029_1221">
<rect width="14" height="11" fill="currentColor" transform="translate(2 2.5)"/>
</clipPath>
</defs>
</svg>
