<svg width="16" height="16" viewBox="0 0 16 16" fill="none" xmlns="http://www.w3.org/2000/svg">
<path d="M14.5 6.92L13.27 12.355C13.2456 12.4687 13.1823 12.5704 13.0911 12.6425C12.9998 12.7146 12.8863 12.7526 12.77 12.75H3.19001C3.07373 12.7526 2.9602 12.7146 2.86893 12.6425C2.77767 12.5704 2.7144 12.4687 2.69001 12.355L1.50001 6.92C1.47998 6.82816 1.48624 6.73254 1.51808 6.6441C1.54992 6.55566 1.60604 6.47799 1.68001 6.42C1.75418 6.36179 1.84329 6.32574 1.93707 6.31601C2.03085 6.30628 2.12547 6.32326 2.21001 6.365L5.13001 7.78L7.55001 3.5C7.59362 3.42305 7.65686 3.35904 7.73328 3.31451C7.8097 3.26998 7.89656 3.24652 7.98501 3.24652C8.07345 3.24652 8.16032 3.26998 8.23674 3.31451C8.31316 3.35904 8.3764 3.42305 8.42001 3.5L10.84 7.785L13.78 6.36C13.8652 6.31486 13.9615 6.29529 14.0575 6.30365C14.1535 6.312 14.2451 6.34792 14.3212 6.40709C14.3972 6.46625 14.4546 6.54614 14.4863 6.63714C14.518 6.72813 14.5228 6.82636 14.5 6.92Z" fill="currentColor"/>
</svg>
