<svg width="16" height="16" viewBox="0 0 16 16" fill="none" xmlns="http://www.w3.org/2000/svg">
<g clip-path="url(#clip0_820_1241)">
<path d="M7.99906 0C4.00146 0.00191916 0.76001 3.24337 0.76001 7.24287V10.6552C0.76001 10.8355 0.844453 11.0044 0.988389 11.1138L4.10126 13.4763V15.4243C4.10126 15.7428 4.35843 16 4.67701 16H5.13952C5.4581 16 5.71527 15.7428 5.71527 15.4243V14.6336C5.71527 14.432 5.8784 14.2689 6.07991 14.2689C6.28142 14.2689 6.44455 14.432 6.44455 14.6336V15.4243C6.44455 15.7428 6.70171 16 7.02029 16H7.03949C7.35807 16 7.61523 15.7428 7.61523 15.4243V14.6336C7.61523 14.432 7.77836 14.2689 7.97987 14.2689H8.01826C8.21977 14.2689 8.38289 14.432 8.38289 14.6336V15.4243C8.38289 15.7428 8.64006 16 8.95864 16H8.97783C9.29641 16 9.55358 15.7428 9.55358 15.4243V14.6336C9.55358 14.432 9.71671 14.2689 9.91822 14.2689C10.1197 14.2689 10.2829 14.432 10.2829 14.6336V15.4243C10.2829 15.7428 10.54 16 10.8586 16H11.323C11.6416 16 11.8988 15.7428 11.8988 15.4243V13.4744L15.0117 11.1119C15.1556 11.0025 15.24 10.8336 15.24 10.6532V7.24097C15.2381 3.24337 11.9967 0.00191916 7.99906 0ZM4.97256 10.7108C3.87096 10.7108 2.97663 9.81648 2.97663 8.71489C2.97663 7.61331 3.87096 6.71896 4.97256 6.71896C6.07415 6.71896 6.96848 7.61331 6.96848 8.71489C6.96848 9.8184 6.07415 10.7108 4.97256 10.7108ZM8.56713 12.179H7.43291C7.16999 12.179 7.00302 11.8968 7.12969 11.6665L7.69776 10.636C7.82826 10.398 8.17179 10.398 8.30229 10.636L8.87038 11.6665C8.99512 11.8968 8.82814 12.179 8.56713 12.179ZM11.0256 10.7108C9.92398 10.7108 9.02965 9.81648 9.02965 8.71489C9.02965 7.61331 9.92398 6.71896 11.0256 6.71896C12.1271 6.71896 13.0215 7.61331 13.0215 8.71489C13.0215 9.8184 12.1291 10.7108 11.0256 10.7108Z" fill="currentColor"/>
</g>
<defs>
<clipPath id="clip0_820_1241">
<rect width="16" height="16" fill="white"/>
</clipPath>
</defs>
</svg>
