<svg width="16" height="16" viewBox="0 0 16 16" fill="none" xmlns="http://www.w3.org/2000/svg">
<g clip-path="url(#clip0_2029_1674)">
<path d="M7.97481 15.864C10.0532 15.8613 12.0455 15.0342 13.5147 13.5641C14.9838 12.094 15.8097 10.1011 15.811 8.02275C15.809 5.94507 14.9828 3.95306 13.5136 2.48392C12.0445 1.01478 10.0525 0.188534 7.97481 0.186533C5.89734 0.1892 3.90571 1.01566 2.43671 2.48465C0.967715 3.95365 0.141259 5.94528 0.138592 8.02275C0.141254 10.1003 0.967202 12.092 2.43551 13.5618C3.90382 15.0315 5.89731 15.8593 7.97481 15.864ZM8.65513 11.3664C8.51996 11.3712 8.3865 11.3349 8.27243 11.2622C8.15836 11.1895 8.06905 11.0839 8.01633 10.9593C7.96361 10.8348 7.94996 10.6971 7.9772 10.5647C8.00443 10.4322 8.07125 10.3111 8.16883 10.2174L9.69324 8.69299L4.64883 8.69299C4.47174 8.69299 4.3019 8.62264 4.17668 8.49742C4.05146 8.3722 3.98111 8.20236 3.98111 8.02527C3.98111 7.84818 4.05146 7.67835 4.17668 7.55313C4.3019 7.42791 4.47174 7.35756 4.64883 7.35756L9.69828 7.35756L8.16883 5.82811C8.0985 5.76832 8.04133 5.69461 8.00092 5.61161C7.96052 5.52861 7.93777 5.43814 7.93409 5.34591C7.93042 5.25367 7.94592 5.16168 7.9796 5.07573C8.01328 4.98979 8.06441 4.91176 8.12977 4.84658C8.19513 4.78139 8.27329 4.73047 8.35933 4.69702C8.44536 4.66357 8.5374 4.64832 8.62962 4.65224C8.72185 4.65616 8.81226 4.67915 8.89514 4.71978C8.97803 4.7604 9.0516 4.81777 9.11119 4.88827L11.7821 7.55913C11.9059 7.68417 11.9754 7.85305 11.9754 8.02905C11.9754 8.20505 11.9059 8.37394 11.7821 8.49897L9.11119 11.1673C8.99153 11.2903 8.82911 11.3625 8.65765 11.3689L8.65513 11.3664Z" fill="currentColor"/>
</g>
<defs>
<clipPath id="clip0_2029_1674">
<rect width="16" height="16" fill="currentColor"/>
</clipPath>
</defs>
</svg>
