<svg width="24" height="24" viewBox="0 0 24 24" fill="none" xmlns="http://www.w3.org/2000/svg">
<g clip-path="url(#clip0_422_3128)">
<path d="M23.0303 5.03028L20.7803 7.28028C20.6396 7.42094 20.4489 7.49999 20.25 7.50003H17.5605L12.5303 12.5303C12.4608 12.6002 12.3781 12.6556 12.2871 12.6935C12.1961 12.7313 12.0986 12.7508 12 12.7508C11.9014 12.7508 11.8039 12.7313 11.7129 12.6935C11.6219 12.6556 11.5392 12.6002 11.4698 12.5303C11.3291 12.3896 11.2502 12.1989 11.2502 12C11.2502 11.8012 11.3291 11.6104 11.4698 11.4698L16.5 6.43953V3.75003C16.5 3.55113 16.5791 3.3604 16.7197 3.21978L18.9697 0.969778C19.0744 0.864182 19.208 0.792121 19.3537 0.762778C19.4995 0.733435 19.6506 0.748138 19.7879 0.805014C19.9252 0.861891 20.0425 0.958365 20.1248 1.08214C20.2071 1.20592 20.2507 1.35139 20.25 1.50003V3.75003H22.5C22.6483 3.75006 22.7933 3.79406 22.9166 3.87648C23.0399 3.95889 23.136 4.07601 23.1928 4.21304C23.2495 4.35006 23.2644 4.50084 23.2354 4.6463C23.2065 4.79177 23.1351 4.92539 23.0303 5.03028ZM16.9425 10.2375L13.59 13.59C13.1625 14.0175 12.6 14.25 12 14.25C11.4 14.25 10.8375 14.0175 10.41 13.59C9.98865 13.1682 9.75198 12.5963 9.75198 12C9.75198 11.4038 9.98865 10.8319 10.41 10.41L13.7625 7.05753C13.1979 6.8512 12.6011 6.74708 12 6.75003C9.105 6.75003 6.75 9.10503 6.75 12C6.75 14.895 9.105 17.25 12 17.25C14.895 17.25 17.25 14.895 17.25 12C17.25 11.3775 17.145 10.785 16.9425 10.2375ZM23.25 12C23.25 18.2025 18.2025 23.25 12 23.25C5.7975 23.25 0.75 18.2025 0.75 12C0.75 5.79753 5.7975 0.750028 12 0.750028C13.4625 0.750028 14.895 1.03503 16.23 1.59003L15.66 2.16003C15.2325 2.58753 15 3.15003 15 3.75003V5.82003L14.91 5.91003C14.0013 5.47594 13.0071 5.25044 12 5.25003C8.28 5.25003 5.25 8.28003 5.25 12C5.25 15.72 8.28 18.75 12 18.75C15.72 18.75 18.75 15.72 18.75 12C18.75 10.9575 18.51 9.97503 18.09 9.09003L18.18 9.00003H20.25C20.85 9.00003 21.4125 8.76753 21.84 8.34003L22.41 7.77003C22.9665 9.11075 23.252 10.5484 23.25 12Z" fill="currentColor"/>
</g>
<defs>
<clipPath id="clip0_422_3128">
<rect width="24" height="24" fill="white"/>
</clipPath>
</defs>
</svg>
