<svg width="24" height="24" viewBox="0 0 24 24" fill="none" xmlns="http://www.w3.org/2000/svg">
<g clip-path="url(#clip0_422_3163)">
<path d="M8.55579 13.6008H10.8358L9.72003 10.8843L8.55579 13.6008Z" fill="currentColor"/>
<path d="M12 0.600098C5.6935 0.600098 0.599976 5.69362 0.599976 12.0001C0.599976 18.3066 5.6935 23.4001 12 23.4001C18.3065 23.4001 23.4 18.3066 23.4 12.0001C23.4 5.69362 18.3065 0.600098 12 0.600098ZM12.2808 16.9199L11.6119 15.3959H7.7311L7.06198 16.9199C7.00126 17.0581 6.90162 17.1756 6.77522 17.2582C6.64881 17.3407 6.50111 17.3847 6.35014 17.3847H5.9059C5.3467 17.3847 4.97038 16.8123 5.1919 16.2992L8.49862 8.63722C8.55879 8.4978 8.65847 8.37906 8.78535 8.29563C8.91224 8.21221 9.06077 8.16776 9.21262 8.16778H10.1789C10.3307 8.16776 10.4792 8.21221 10.6061 8.29563C10.733 8.37906 10.8327 8.4978 10.8929 8.63722L14.1996 16.2992C14.4211 16.8123 14.0448 17.3847 13.4856 17.3847H12.9929C12.8419 17.3847 12.6942 17.3407 12.5678 17.2582C12.4414 17.1756 12.3417 17.0581 12.281 16.9199H12.2808ZM18.4992 8.99266H16.9481V10.592C16.9481 10.7982 16.8661 10.996 16.7203 11.1419C16.5745 11.2877 16.3767 11.3696 16.1705 11.3696H15.9307C15.7245 11.3696 15.5267 11.2877 15.3808 11.1419C15.235 10.996 15.1531 10.7982 15.1531 10.592V8.99242H13.6022C13.396 8.99242 13.1982 8.91049 13.0524 8.76466C12.9065 8.61884 12.8246 8.42105 12.8246 8.21482V8.16922C12.8246 8.0671 12.8447 7.96599 12.8838 7.87164C12.9229 7.7773 12.9802 7.69158 13.0524 7.61937C13.1246 7.54716 13.2103 7.48989 13.3046 7.45081C13.399 7.41173 13.5001 7.39162 13.6022 7.39162H15.1531V5.7433C15.1531 5.53707 15.235 5.33928 15.3808 5.19345C15.5267 5.04762 15.7245 4.9657 15.9307 4.9657H16.1707C16.3769 4.96576 16.5746 5.04771 16.7204 5.19354C16.8662 5.33936 16.9481 5.53711 16.9481 5.7433V7.3429H18.4989C18.7052 7.3429 18.903 7.42482 19.0488 7.57065C19.1946 7.71648 19.2765 7.91427 19.2765 8.1205V8.21458C19.2765 8.42081 19.1946 8.6186 19.0488 8.76442C18.903 8.91025 18.7052 8.99218 18.4989 8.99218L18.4992 8.99266Z" fill="currentColor"/>
</g>
<defs>
<clipPath id="clip0_422_3163">
<rect width="24" height="24" fill="white"/>
</clipPath>
</defs>
</svg>
