<svg width="24" height="24" viewBox="0 0 24 24" fill="none" xmlns="http://www.w3.org/2000/svg">
<path fill-rule="evenodd" clip-rule="evenodd" d="M10.709 2.42002C9.944 1.89002 9.086 1.90902 8.254 2.08802C7.461 2.25902 6.483 2.62602 5.319 3.06302L5.197 3.10802C4.61 3.32802 4.094 3.52202 3.686 3.72802C3.244 3.95302 2.841 4.23502 2.534 4.67802C2.228 5.12002 2.106 5.59602 2.051 6.08802C2 6.54502 2 7.09502 2 7.72202V16.28C2 16.907 2 17.457 2.05 17.913C2.106 18.405 2.228 18.882 2.534 19.323C2.841 19.766 3.244 20.048 3.686 20.273C4.094 20.48 4.61 20.673 5.196 20.893L5.318 20.938C6.483 21.375 7.461 21.742 8.254 21.913C9.086 22.093 9.944 22.11 10.709 21.581C10.9378 21.4226 11.1377 21.2261 11.3 21H15C15.7956 21 16.5587 20.6839 17.1213 20.1213C17.6839 19.5587 18 18.7957 18 18C18 17.7348 17.8946 17.4804 17.7071 17.2929C17.5196 17.1054 17.2652 17 17 17C16.7348 17 16.4804 17.1054 16.2929 17.2929C16.1054 17.4804 16 17.7348 16 18C16 18.2652 15.8946 18.5196 15.7071 18.7071C15.5196 18.8947 15.2652 19 15 19H11.93C12 18.26 12 17.354 12 16.307V7.69302C12 6.64602 12 5.74002 11.93 5.00002H15C15.552 5.00002 16 5.44802 16 6.00002C16 6.26523 16.1054 6.51959 16.2929 6.70712C16.4804 6.89466 16.7348 7.00002 17 7.00002C17.2652 7.00002 17.5196 6.89466 17.7071 6.70712C17.8946 6.51959 18 6.26523 18 6.00002C18 5.20437 17.6839 4.4413 17.1213 3.8787C16.5587 3.31609 15.7956 3.00002 15 3.00002H11.3C11.1376 2.77431 10.9377 2.57813 10.709 2.42002ZM8 10C8.26522 10 8.51957 10.1054 8.70711 10.2929C8.89464 10.4804 9 10.7348 9 11V13C9 13.2652 8.89464 13.5196 8.70711 13.7071C8.51957 13.8947 8.26522 14 8 14C7.73478 14 7.48043 13.8947 7.29289 13.7071C7.10536 13.5196 7 13.2652 7 13V11C7 10.7348 7.10536 10.4804 7.29289 10.2929C7.48043 10.1054 7.73478 10 8 10Z" fill="currentColor"/>
<path d="M18.293 9.29303C18.4805 9.10556 18.7348 9.00024 19 9.00024C19.2652 9.00024 19.5195 9.10556 19.707 9.29303L21.707 11.293C21.8945 11.4806 21.9998 11.7349 21.9998 12C21.9998 12.2652 21.8945 12.5195 21.707 12.707L19.707 14.707C19.5184 14.8892 19.2658 14.99 19.0036 14.9877C18.7414 14.9854 18.4906 14.8803 18.3052 14.6948C18.1198 14.5094 18.0146 14.2586 18.0123 13.9964C18.01 13.7342 18.1108 13.4816 18.293 13.293L18.586 13H15C14.7348 13 14.4804 12.8947 14.2929 12.7071C14.1054 12.5196 14 12.2652 14 12C14 11.7348 14.1054 11.4805 14.2929 11.2929C14.4804 11.1054 14.7348 11 15 11H18.586L18.293 10.707C18.1055 10.5195 18.0002 10.2652 18.0002 10C18.0002 9.73487 18.1055 9.48056 18.293 9.29303Z" fill="currentColor"/>
</svg>
