<svg width="32" height="40" viewBox="0 0 32 40" fill="none" xmlns="http://www.w3.org/2000/svg">
<path d="M1.15387 21.0501C3.39822 24.9346 8.21566 26.3989 12.0647 24.4353L12.4335 24.234L27.3609 15.6155C29.2503 14.5243 30.5929 12.7376 31.1379 10.5959C31.6817 8.45046 31.3649 6.19593 30.244 4.25491L30.1024 4.01827C29.3759 2.8488 28.3789 1.86636 27.2014 1.16808C24.6421 -0.349008 21.4879 -0.387142 18.9636 1.07061L16.3025 2.60966L12.3676 4.87936C12.3676 4.87936 -1.00115 12.3347 1.0145 20.7999L1.15387 21.0501ZM6.13452 20.6824C5.50373 20.3085 4.95405 19.7699 4.55852 19.0844L4.45174 18.8875C3.43445 16.9041 4.04845 14.4805 5.86821 13.2999L6.05405 13.1864L20.983 4.56876C22.292 3.81342 23.9347 3.83289 25.2619 4.61965C25.9092 5.00351 26.4548 5.55657 26.839 6.22149C27.3858 7.16967 27.5646 8.25208 27.3507 9.30207L27.3026 9.51221L27.2445 9.71951C26.9328 10.7405 26.2641 11.585 25.3414 12.1173L10.4149 20.7362L10.1568 20.8727C8.85359 21.5078 7.34404 21.3994 6.13452 20.6824Z" fill="currentColor"/>
<path d="M30.2436 4.25414C27.9992 0.369633 23.1818 -1.09466 19.3327 0.868873L18.964 1.0702L4.03653 9.68871C2.14712 10.78 0.804507 12.5666 0.259552 14.7083C-0.284286 16.8538 0.0325047 19.1083 1.15342 21.0493L1.29507 21.2859C2.02154 22.4554 3.01849 23.4379 4.19608 24.1361C6.75531 25.6532 9.90952 25.6913 12.4338 24.2336L15.095 22.6945L19.0299 20.4248C19.0299 20.4248 32.3986 12.9695 30.3829 4.50431L30.2436 4.25414ZM25.2629 4.62183C25.8937 4.99575 26.4434 5.53432 26.8389 6.21985L26.9457 6.41671C27.963 8.40011 27.349 10.8237 25.5292 12.0043L25.3434 12.1178L10.4144 20.7354C9.10541 21.4908 7.46278 21.4713 6.13555 20.6846C5.4882 20.3007 4.94265 19.7476 4.55845 19.0827C4.01166 18.1345 3.83285 17.0521 4.0467 16.0021L4.09485 15.792L4.15291 15.5847C4.46459 14.5637 5.1333 13.7192 6.05601 13.1869L20.9826 4.56799L21.2406 4.43147C22.5438 3.79638 24.0534 3.90484 25.2629 4.62183Z" fill="currentColor"/>
<path d="M1.15387 35.7459C3.39822 39.6304 8.21566 41.0947 12.0647 39.1311L12.4335 38.9298L27.3609 30.3113C29.2503 29.22 30.5929 27.4334 31.1379 25.2917C31.6817 23.1463 31.3649 20.8917 30.244 18.9507L30.1024 18.7141C29.3759 17.5446 28.3789 16.5622 27.2014 15.8639C24.6421 14.3468 21.4879 14.3087 18.9636 15.7664L16.3025 17.3055L12.3676 19.5752C12.3676 19.5752 -1.00115 27.0305 1.0145 35.4957L1.15387 35.7459ZM6.13452 35.3782C5.50373 35.0042 4.95405 34.4657 4.55852 33.7802L4.45174 33.5833C3.43445 31.5999 4.04845 29.1763 5.86821 27.9957L6.05405 27.8822L20.983 19.2646C22.292 18.5092 23.9347 18.5287 25.2619 19.3154C25.9092 19.6993 26.4548 20.2524 26.839 20.9173C27.3858 21.8655 27.5646 22.9479 27.3507 23.9979L27.3026 24.208L27.2445 24.4153C26.9328 25.4363 26.2641 26.2808 25.3414 26.8131L10.4149 35.432L10.1568 35.5685C8.85359 36.2036 7.34404 36.0952 6.13452 35.3782Z" fill="currentColor"/>
<path d="M30.2436 18.9499C27.9992 15.0654 23.1818 13.6011 19.3327 15.5647L18.964 15.766L4.03653 24.3845C2.14712 25.4758 0.804507 27.2624 0.259552 29.4041C-0.284286 31.5495 0.0325047 33.8041 1.15342 35.7451L1.29507 35.9817C2.02154 37.1512 3.01849 38.1336 4.19608 38.8319C6.75531 40.349 9.90952 40.3871 12.4338 38.9294L15.095 37.3903L19.0299 35.1206C19.0299 35.1206 32.3986 27.6653 30.3829 19.2001L30.2436 18.9499ZM25.2629 19.3176C25.8937 19.6915 26.4434 20.2301 26.8389 20.9156L26.9457 21.1125C27.963 23.0959 27.349 25.5195 25.5292 26.7001L25.3434 26.8136L10.4144 35.4312C9.10541 36.1866 7.46278 36.1671 6.13555 35.3804C5.4882 34.9965 4.94265 34.4434 4.55845 33.7785C4.01166 32.8303 3.83285 31.7479 4.0467 30.6979L4.09485 30.4878L4.15291 30.2805C4.46459 29.2595 5.1333 28.415 6.05601 27.8827L20.9826 19.2638L21.2406 19.1273C22.5438 18.4922 24.0534 18.6006 25.2629 19.3176Z" fill="currentColor"/>
</svg>
