<svg width="20" height="20" viewBox="0 0 20 20" fill="none" xmlns="http://www.w3.org/2000/svg">
<path fill-rule="evenodd" clip-rule="evenodd" d="M10 0C4.477 0 0 4.477 0 10C0 11.815 0.485 13.52 1.331 14.988C1.504 15.288 1.533 15.652 1.388 15.965L0.534 17.802C0.413805 18.0306 0.354686 18.2864 0.362367 18.5446C0.370047 18.8028 0.444268 19.0546 0.577841 19.2757C0.711414 19.4968 0.899812 19.6796 1.12479 19.8065C1.34977 19.9334 1.6037 20.0001 1.862 20H10C15.523 20 20 15.523 20 10C20 4.477 15.523 0 10 0ZM7 7C6.73478 7 6.48043 7.10536 6.29289 7.29289C6.10536 7.48043 6 7.73478 6 8C6 8.26522 6.10536 8.51957 6.29289 8.70711C6.48043 8.89464 6.73478 9 7 9H9C9.26522 9 9.51957 8.89464 9.70711 8.70711C9.89464 8.51957 10 8.26522 10 8C10 7.73478 9.89464 7.48043 9.70711 7.29289C9.51957 7.10536 9.26522 7 9 7H7ZM7 11C6.73478 11 6.48043 11.1054 6.29289 11.2929C6.10536 11.4804 6 11.7348 6 12C6 12.2652 6.10536 12.5196 6.29289 12.7071C6.48043 12.8946 6.73478 13 7 13H13C13.2652 13 13.5196 12.8946 13.7071 12.7071C13.8946 12.5196 14 12.2652 14 12C14 11.7348 13.8946 11.4804 13.7071 11.2929C13.5196 11.1054 13.2652 11 13 11H7Z" fill="currentColor"/>
</svg>
