<svg width="24" height="24" viewBox="0 0 24 24" fill="none" xmlns="http://www.w3.org/2000/svg">
<path d="M6.38285 4.78439C6.06469 4.78478 5.75387 4.88001 5.49009 5.05791C5.22632 5.23581 5.02156 5.48831 4.90199 5.78314C4.78241 6.07798 4.75344 6.40176 4.81877 6.71314C4.88411 7.02452 5.04078 7.30936 5.26879 7.53126L9.73753 12L5.26879 16.4688C5.11523 16.6162 4.99263 16.7928 4.90818 16.9882C4.82372 17.1836 4.7791 17.3939 4.77694 17.6068C4.77477 17.8196 4.8151 18.0308 4.89557 18.2279C4.97603 18.4249 5.09501 18.604 5.24553 18.7545C5.39606 18.905 5.57511 19.024 5.77219 19.1045C5.96927 19.1849 6.18043 19.2253 6.39329 19.2231C6.60616 19.2209 6.81645 19.1763 7.01186 19.0919C7.20726 19.0074 7.38385 18.8848 7.53129 18.7313L12 14.2625L16.4688 18.7313C16.6162 18.8848 16.7928 19.0074 16.9882 19.0919C17.1836 19.1763 17.3939 19.221 17.6068 19.2231C17.8196 19.2253 18.0308 19.185 18.2279 19.1045C18.425 19.024 18.604 18.9051 18.7545 18.7545C18.9051 18.604 19.0241 18.425 19.1045 18.2279C19.185 18.0308 19.2253 17.8196 19.2231 17.6068C19.221 17.3939 19.1764 17.1836 19.0919 16.9882C19.0074 16.7928 18.8848 16.6162 18.7313 16.4688L14.2625 12L18.7313 7.53126C18.9625 7.30652 19.1204 7.01718 19.1843 6.70115C19.2483 6.38511 19.2152 6.05714 19.0896 5.7602C18.9639 5.46326 18.7515 5.21122 18.4801 5.03709C18.2087 4.86296 17.8911 4.77488 17.5688 4.78439C17.1531 4.79677 16.7586 4.9705 16.4688 5.26876L12 9.73751L7.53129 5.26876C7.382 5.1153 7.20343 4.99336 7.00617 4.91016C6.8089 4.82696 6.59694 4.78419 6.38285 4.78439Z" fill="currentColor"/>
</svg>
