<svg width="24" height="24" viewBox="0 0 24 24" fill="none" xmlns="http://www.w3.org/2000/svg">
<path d="M14.7188 5.4375C14.495 5.4375 14.2804 5.52639 14.1221 5.68463C13.9639 5.84286 13.875 6.05747 13.875 6.28125C13.875 6.50503 13.9639 6.71964 14.1221 6.87787C14.2804 7.03611 14.495 7.125 14.7188 7.125C14.9425 7.125 15.1571 7.03611 15.3154 6.87787C15.4736 6.71964 15.5625 6.50503 15.5625 6.28125C15.5625 6.05747 15.4736 5.84286 15.3154 5.68463C15.1571 5.52639 14.9425 5.4375 14.7188 5.4375Z" fill="currentColor"/>
<path fill-rule="evenodd" clip-rule="evenodd" d="M10.125 6.306C10.125 3.75731 12.1796 1.6875 14.7188 1.6875C17.2579 1.6875 19.3125 3.75731 19.3125 6.306C19.3125 6.97762 19.0747 7.65375 18.7343 8.30044C18.3926 8.94938 17.9325 9.59644 17.4562 10.2139C17.2186 10.52 16.9777 10.8237 16.7336 11.1248L16.6811 11.19C16.4604 11.4637 16.2467 11.7292 16.0464 11.9865C15.6105 12.5469 15.2595 13.0444 15.0579 13.4722C15.0276 13.5366 14.9796 13.5909 14.9196 13.629C14.8595 13.6671 14.7899 13.6873 14.7188 13.6873C14.6476 13.6873 14.578 13.6671 14.5179 13.629C14.4579 13.5909 14.4099 13.5366 14.3796 13.4722C14.178 13.0444 13.827 12.5469 13.3911 11.9865C13.1908 11.7292 12.9771 11.4639 12.7564 11.19L12.7039 11.1248C12.4598 10.8237 12.2189 10.52 11.9813 10.2139C11.505 9.59644 11.0449 8.94938 10.7032 8.30044C10.3627 7.65356 10.125 6.97762 10.125 6.306ZM13.125 6.28125C13.125 5.85856 13.2929 5.45318 13.5918 5.1543C13.8907 4.85541 14.2961 4.6875 14.7188 4.6875C15.1414 4.6875 15.5468 4.85541 15.8457 5.1543C16.1446 5.45318 16.3125 5.85856 16.3125 6.28125C16.3125 6.70394 16.1446 7.10931 15.8457 7.4082C15.5468 7.70709 15.1414 7.875 14.7188 7.875C14.2961 7.875 13.8907 7.70709 13.5918 7.4082C13.2929 7.10931 13.125 6.70394 13.125 6.28125Z" fill="currentColor"/>
<path d="M8.94463 9.39692C8.87005 9.37736 8.79222 9.37347 8.71607 9.38548C8.04144 9.49198 7.26182 9.66973 6.52982 9.92398C5.804 10.1762 5.096 10.5131 4.58825 10.9517C4.07525 11.3951 3.72257 11.9867 3.85138 12.7123C3.97382 13.4032 4.51832 14.1045 5.49444 14.832C6.64625 15.6902 7.46675 16.37 8.01088 16.9519C8.55707 17.5357 8.78713 17.9812 8.82988 18.3686C8.8715 18.7468 8.74288 19.1475 8.38513 19.665C8.02419 20.1872 7.46431 20.7802 6.71394 21.5359C6.36331 21.8889 6.60932 22.5004 7.11707 22.4962L17.8942 22.4072C17.9936 22.4062 18.091 22.3789 18.1764 22.3282C18.2619 22.2774 18.3324 22.2049 18.3808 22.118C19.1947 20.6565 19.8209 19.1972 18.9538 17.7549C18.5338 17.0565 17.786 16.4051 16.6447 15.7646C15.5004 15.1224 13.9321 14.4755 11.8334 13.7992C10.3522 13.3219 9.39407 12.896 8.81844 12.5276C8.21357 12.1404 8.15225 11.8974 8.15788 11.8174C8.16069 11.7761 8.1815 11.7116 8.26625 11.6224C8.3525 11.5316 8.48844 11.4339 8.67744 11.3353C9.05507 11.1382 9.57782 10.9723 10.1424 10.8455C10.4439 10.778 10.5826 10.5148 10.5911 10.2967C10.5997 10.0768 10.478 9.79685 10.1692 9.71642L8.94463 9.39692Z" fill="currentColor"/>
</svg>
