<svg width="24" height="24" viewBox="0 0 24 24" fill="none" xmlns="http://www.w3.org/2000/svg">
<g clip-path="url(#clip0_422_3174)">
<path d="M24 16.2423C24 13.2641 22.2914 10.6061 19.7325 9.31323C19.6531 15.0235 15.0234 19.6532 9.31311 19.7326C10.606 22.2915 13.264 24.0001 16.2422 24.0001C17.6386 24.0001 18.9965 23.6282 20.1895 22.9216L23.9661 23.9662L22.9215 20.1897C23.6281 18.9966 24 17.6387 24 16.2423Z" fill="currentColor"/>
<path d="M18.3281 9.16406C18.3281 4.11094 14.2172 0 9.16406 0C4.11094 0 0 4.11094 0 9.16406C0 10.8109 0.438375 12.4144 1.27078 13.8221L0.0336563 18.2942L4.506 17.0574C5.91375 17.8897 7.5172 18.3281 9.16406 18.3281C14.2172 18.3281 18.3281 14.2172 18.3281 9.16406ZM7.75781 7.03125H6.35156C6.35156 5.48034 7.61316 4.21875 9.16406 4.21875C10.715 4.21875 11.9766 5.48034 11.9766 7.03125C11.9766 7.81842 11.6433 8.57503 11.0619 9.10673L9.86719 10.2002V11.2969H8.46094V9.58102L10.1125 8.0693C10.4077 7.7992 10.5703 7.43062 10.5703 7.03125C10.5703 6.2558 9.93952 5.625 9.16406 5.625C8.38861 5.625 7.75781 6.2558 7.75781 7.03125ZM8.46094 12.7031H9.86719V14.1094H8.46094V12.7031Z" fill="currentColor"/>
</g>
<defs>
<clipPath id="clip0_422_3174">
<rect width="24" height="24" fill="white"/>
</clipPath>
</defs>
</svg>
