<svg width="24" height="24" viewBox="0 0 24 24" fill="none" xmlns="http://www.w3.org/2000/svg">
<path fill-rule="evenodd" clip-rule="evenodd" d="M13.083 1.78735C12.4058 1.41235 11.583 1.41235 10.905 1.78735C8.48834 3.125 6.07159 4.4625 3.65476 5.79985C3.32112 5.98466 3.03994 6.25125 2.83763 6.57457C2.63532 6.89789 2.51851 7.26733 2.49819 7.64819C2.47787 8.02905 2.5547 8.40882 2.72146 8.75184C2.88822 9.09485 3.13943 9.38984 3.45151 9.6091L10.701 14.7009C11.0797 14.9668 11.5312 15.1095 11.994 15.1095C12.4568 15.1095 12.9083 14.9668 13.287 14.7009C14.8845 13.5781 18.342 11.1511 20.5365 9.60835C20.8488 9.38912 21.1001 9.0941 21.267 8.75101C21.4339 8.40791 21.5107 8.02802 21.4904 7.64704C21.4701 7.26607 21.3532 6.89651 21.1508 6.57312C20.9484 6.24973 20.6671 5.98312 20.3333 5.79835L13.083 1.78735Z" fill="currentColor"/>
<path fill-rule="evenodd" clip-rule="evenodd" d="M2.94006 16.6306L10.7011 22.0816C11.0798 22.3475 11.5313 22.4902 11.9941 22.4902C12.4568 22.4902 12.9083 22.3475 13.2871 22.0816L21.0488 16.6306C21.208 16.5149 21.3154 16.3411 21.3477 16.147C21.38 15.9528 21.3346 15.7537 21.2214 15.5926C21.1082 15.4316 20.9362 15.3215 20.7426 15.2861C20.5489 15.2508 20.3491 15.293 20.1863 15.4036L12.4253 20.8546C12.2989 20.9431 12.1484 20.9906 11.9941 20.9906C11.8397 20.9906 11.6892 20.9431 11.5628 20.8546L3.80106 15.4036C3.63818 15.2961 3.43979 15.2562 3.24803 15.2926C3.05627 15.329 2.88624 15.4387 2.77407 15.5984C2.66189 15.7582 2.6164 15.9553 2.64725 16.148C2.6781 16.3408 2.78287 16.5139 2.93931 16.6306H2.94006Z" fill="currentColor"/>
<path fill-rule="evenodd" clip-rule="evenodd" d="M2.94006 12.8874L10.7011 18.3384C11.0798 18.6044 11.5313 18.7471 11.9941 18.7471C12.4568 18.7471 12.9083 18.6044 13.2871 18.3384L21.0488 12.8874C21.208 12.7717 21.3154 12.598 21.3477 12.4038C21.38 12.2096 21.3346 12.0105 21.2214 11.8495C21.1082 11.6884 20.9362 11.5783 20.7426 11.543C20.5489 11.5076 20.3491 11.5498 20.1863 11.6604L12.4253 17.1114C12.2989 17.2 12.1484 17.2475 11.9941 17.2475C11.8397 17.2475 11.6892 17.2 11.5628 17.1114L3.80106 11.6604C3.63818 11.5529 3.43979 11.5131 3.24803 11.5495C3.05627 11.5858 2.88624 11.6955 2.77407 11.8553C2.66189 12.015 2.6164 12.2122 2.64725 12.4049C2.6781 12.5976 2.78287 12.7707 2.93931 12.8874H2.94006Z" fill="currentColor"/>
</svg>
