<svg width="16" height="16" viewBox="0 0 16 16" fill="none" xmlns="http://www.w3.org/2000/svg">
<path d="M11.4887 10.2187C11.3778 9.46567 11.0008 8.77734 10.4259 8.27855C9.85103 7.77975 9.11641 7.50353 8.35532 7.5H7.64598C6.88489 7.50353 6.15027 7.77975 5.57539 8.27855C5.00051 8.77734 4.62347 9.46567 4.51265 10.2187L4.17265 12.596C4.16179 12.6728 4.16897 12.7512 4.19361 12.8248C4.21826 12.8984 4.2597 12.9652 4.31465 13.02C4.44798 13.1533 5.26598 13.8333 8.00132 13.8333C10.7367 13.8333 11.5527 13.156 11.688 13.02C11.7429 12.9652 11.7844 12.8984 11.809 12.8248C11.8337 12.7512 11.8408 12.6728 11.83 12.596L11.4887 10.2187ZM5.03998 7.86667C4.39567 8.46064 3.97645 9.25904 3.85332 10.1267L3.60665 11.8333C1.62665 11.82 1.02665 11.1 0.92665 10.9533C0.887995 10.9001 0.860411 10.8396 0.845525 10.7754C0.83064 10.7113 0.828755 10.6449 0.839983 10.58L0.98665 9.75333C1.06306 9.3213 1.24253 8.91406 1.50983 8.56615C1.77713 8.21824 2.12439 7.93991 2.52215 7.75477C2.91991 7.56963 3.35645 7.48313 3.79476 7.50261C4.23307 7.52209 4.66021 7.64697 5.03998 7.86667ZM15.16 10.58C15.1712 10.6449 15.1693 10.7113 15.1544 10.7754C15.1396 10.8396 15.112 10.9001 15.0733 10.9533C14.9733 11.1 14.3733 11.82 12.3933 11.8333L12.1467 10.1267C12.0235 9.25904 11.6043 8.46064 10.96 7.86667C11.3398 7.64697 11.7669 7.52209 12.2052 7.50261C12.6435 7.48313 13.0801 7.56963 13.4778 7.75477C13.8756 7.93991 14.2228 8.21824 14.4901 8.56615C14.7574 8.91406 14.9369 9.3213 15.0133 9.75333L15.16 10.58ZM5.15332 6.4C4.9855 6.638 4.76272 6.83197 4.5039 6.96545C4.24508 7.09892 3.95786 7.16795 3.66665 7.16667C3.37615 7.16667 3.08982 7.09764 2.83124 6.96526C2.57265 6.83289 2.34923 6.64096 2.17937 6.4053C2.00952 6.16964 1.89809 5.89699 1.85428 5.60982C1.81048 5.32264 1.83553 5.02917 1.9274 4.75358C2.01926 4.478 2.1753 4.22818 2.38265 4.02473C2.59 3.82128 2.84273 3.67001 3.12001 3.58339C3.39729 3.49678 3.69119 3.47729 3.97748 3.52654C4.26377 3.57579 4.53425 3.69237 4.76665 3.86667C4.69981 4.12807 4.66621 4.39686 4.66665 4.66667C4.66716 5.2781 4.8355 5.87766 5.15332 6.4ZM14.1667 5.33333C14.1668 5.57414 14.1195 5.81262 14.0275 6.03513C13.9354 6.25764 13.8003 6.45981 13.6301 6.63009C13.4598 6.80036 13.2576 6.9354 13.0351 7.02747C12.8126 7.11954 12.5741 7.16684 12.3333 7.16667C12.0421 7.16795 11.7549 7.09892 11.4961 6.96545C11.2372 6.83197 11.0145 6.638 10.8467 6.4C11.1645 5.87766 11.3328 5.2781 11.3333 4.66667C11.3338 4.39686 11.3002 4.12807 11.2333 3.86667C11.5057 3.66238 11.8296 3.53799 12.1687 3.50741C12.5078 3.47683 12.8487 3.54129 13.1532 3.69355C13.4577 3.84581 13.7138 4.07987 13.8928 4.36949C14.0718 4.65912 14.1667 4.99286 14.1667 5.33333Z" fill="currentColor"/>
<path d="M8 7.16667C9.38071 7.16667 10.5 6.04738 10.5 4.66667C10.5 3.28596 9.38071 2.16667 8 2.16667C6.61929 2.16667 5.5 3.28596 5.5 4.66667C5.5 6.04738 6.61929 7.16667 8 7.16667Z" fill="currentColor"/>
</svg>
